<?xml version="1.0" encoding="UTF-8" standalone="no"?>
<!-- Created with Inkscape (http://www.inkscape.org/) -->

<svg
   width="160mm"
   height="80mm"
   viewBox="0 0 160 80"
   version="1.1"
   id="svg5"
   inkscape:version="1.3 (0e150ed6c4, 2023-07-21)"
   sodipodi:docname="velocidade_reacao_equilibrio.svg"
   xmlns:inkscape="http://www.inkscape.org/namespaces/inkscape"
   xmlns:sodipodi="http://sodipodi.sourceforge.net/DTD/sodipodi-0.dtd"
   xmlns="http://www.w3.org/2000/svg"
   xmlns:svg="http://www.w3.org/2000/svg">
  <sodipodi:namedview
     id="namedview7"
     pagecolor="#ffffff"
     bordercolor="#000000"
     borderopacity="0.25"
     inkscape:showpageshadow="2"
     inkscape:pageopacity="0.0"
     inkscape:pagecheckerboard="0"
     inkscape:deskcolor="#d1d1d1"
     inkscape:document-units="mm"
     showgrid="false"
     inkscape:zoom="1.4984147"
     inkscape:cx="276.62569"
     inkscape:cy="189.19996"
     inkscape:window-width="1366"
     inkscape:window-height="699"
     inkscape:window-x="0"
     inkscape:window-y="32"
     inkscape:window-maximized="0"
     inkscape:current-layer="layer1" />
  <defs
     id="defs2" />
  <g
     inkscape:label="Layer 1"
     inkscape:groupmode="layer"
     id="layer1">
    <path
       style="fill:#000000;stroke-width:0.264583"
       id="path1"
       d="m 29.602078,19.311339 c 0.108312,0.682745 -0.0258,1.36694 -0.06509,2.048245 -0.02763,0.479149 -0.03751,1.502746 -0.04439,1.957207 -0.140409,2.573306 -0.03917,5.150071 -0.0011,7.724784 -0.05586,2.832455 0.121134,5.661692 0.210553,8.491561 0.07343,2.825663 -0.130252,5.646484 -0.167974,8.47026 -0.02625,2.641446 -0.06956,5.281967 -0.05198,7.923673 0.01016,2.017789 0.01013,4.03593 -0.0236,6.053505 0.0146,1.036042 -0.07549,2.068174 -0.164981,3.099006 -0.04023,0.184145 -0.05978,0.383334 -0.115401,0.561674 0.154967,-0.841008 2.551023,1.542999 2.322465,1.166151 -0.02823,0.05853 -0.07976,0.110794 -0.0847,0.17559 -0.0021,0.02876 0.04846,-0.03165 0.07465,-0.04372 0.03026,-0.01394 0.06243,-0.02334 0.094,-0.03397 0.144275,-0.04859 0.288571,-0.0765 0.43833,-0.102645 0.780791,-0.03246 1.5641,-0.06246 2.345243,-0.120642 1.887458,-0.147045 3.775284,-0.266976 5.666692,-0.351409 2.84367,-0.127075 5.689121,-0.205629 8.532463,-0.339794 2.495815,-0.149815 4.984941,-0.383445 7.481335,-0.524365 1.740717,-0.103497 3.484594,-0.08124 5.222271,-0.232227 1.667915,-0.131683 3.330107,-0.330806 5.002054,-0.403577 1.30442,-0.01304 2.600576,-0.116747 3.896873,-0.252852 0.886624,-0.124454 1.777926,-0.13245 2.670347,-0.101642 0.690303,0.05856 1.372526,-0.05094 2.054625,-0.13616 0.649046,-0.08891 1.304446,-0.100306 1.957501,-0.137303 0.611701,-0.04223 0.910238,-0.048 0.576866,-0.710546 0,0 -0.0649,-0.04677 -0.0649,-0.04677 v 0 c -0.756377,-0.324173 -1.527825,-0.660922 -2.37005,-0.577239 -0.6576,0.03454 -1.316759,0.05942 -1.969833,0.149611 -0.670256,0.09101 -1.344234,0.161256 -2.021708,0.115673 -0.884592,-0.01796 -1.765011,0.02231 -2.640592,0.159324 -1.309224,0.134261 -2.623261,0.157576 -3.937719,0.209151 -1.699316,0.09937 -3.396663,0.21145 -5.094208,0.335984 -1.784099,0.01667 -3.571248,-0.01016 -5.350444,0.148174 -2.475918,0.220798 -4.951593,0.457462 -7.43689,0.54642 -2.890904,0.09869 -5.782995,0.156345 -8.674438,0.236662 -1.901831,0.05992 -3.807069,0.117325 -5.698345,0.340503 -0.755237,0.05533 -1.515697,0.08365 -2.262037,0.215686 -0.157297,0.03154 -0.313375,0.07111 -0.47168,0.09727 -0.03134,0.0052 -0.06277,0.01468 -0.09447,0.01254 -0.01725,-0.0011 -0.03309,-0.03254 -0.04688,-0.02212 -0.06011,0.04535 -0.09928,0.113239 -0.148923,0.16986 -0.332751,0.717248 2.163897,2.210498 2.331971,1.279528 -0.0049,-0.216292 0.01603,-0.436248 -0.0047,-0.654503 0.04501,-1.064829 0.0288,-2.130515 0.01238,-3.195878 -0.05639,-2.046436 -0.09926,-4.093316 -0.144086,-6.14004 -0.03985,-2.642081 -0.06679,-5.286086 0.02978,-7.927279 0.08854,-2.833931 0.122193,-5.671606 0.119486,-8.506589 -0.07352,-2.836101 -0.215194,-5.670048 -0.248886,-8.507394 -0.02681,-2.600542 -0.01638,-5.202733 -0.150876,-7.800612 -0.01476,-0.555885 -0.03088,-1.451259 -0.07394,-2.018938 -0.05502,-0.725407 -0.203491,-1.44655 -0.171942,-2.177273 z" />
    <path
       style="fill:#000000;stroke-width:0.264583"
       id="path2"
       d="m 41.77662,23.967301 c -0.0019,0.06625 -0.01148,0.132741 -0.0056,0.19875 0.03146,0.349689 0.15843,0.694498 0.240369,1.033484 0.09231,0.381886 0.147145,0.664338 0.228319,1.055645 0.24701,1.45387 0.757907,2.830082 1.307158,4.191263 0.508807,1.203084 0.976831,2.422535 1.437138,3.644804 0.392104,0.926105 0.909957,1.794658 1.481124,2.620351 0.348811,0.512054 0.792059,0.943711 1.277699,1.323864 0.616405,0.372158 1.203553,0.787038 1.787308,1.209281 1.391039,0.961086 2.885668,1.758249 4.40843,2.487512 0.825362,0.401738 1.680921,0.733594 2.558168,1.001845 0.641927,0.149447 1.278946,0.296682 1.903685,0.50991 0.886193,0.313838 1.797283,0.558337 2.713345,0.767969 0.871492,0.207481 1.768758,0.194596 2.652315,0.313164 0.88241,0.156347 1.757215,0.347011 2.643661,0.48025 0.733441,0.09909 1.471946,0.130331 2.211171,0.123111 0.67591,-0.0098 1.348687,0.02233 2.024459,0.0013 0.457259,-0.03099 0.933175,-0.03665 1.368232,-0.197938 1.053148,-0.390424 -0.509939,0.132924 0.539401,-0.210934 0.104693,-0.0055 0.209386,-0.01103 0.314081,-0.01654 0,0 -0.06497,-0.04668 -0.06497,-0.04668 v 0 c -0.104767,0.0056 -0.209534,0.01122 -0.314301,0.01683 -0.869021,-0.03878 -1.736878,-0.08466 -2.606759,-0.09987 -0.722921,-0.01847 -1.444739,-0.05668 -2.166075,-0.105653 -0.733174,-0.01876 -1.468541,-0.02326 -2.195857,-0.130784 -0.893048,-0.126532 -1.767737,-0.339246 -2.656961,-0.486444 -0.909262,-0.09365 -1.821747,-0.172244 -2.715194,-0.376516 -0.939782,-0.219749 -1.868332,-0.48148 -2.770368,-0.827534 -0.656394,-0.220131 -1.328959,-0.379397 -1.993093,-0.574133 -0.855839,-0.261101 -1.687713,-0.586388 -2.493645,-0.976516 -0.411144,-0.191352 -0.63927,-0.292891 -1.048101,-0.502965 -0.193519,-0.09944 -0.359352,-0.327755 -0.575943,-0.307126 -0.204872,0.01953 0.523095,0.516742 0.533236,0.311193 0.02032,-0.411914 -1.062011,-0.244825 -1.040656,-0.66919 -0.589277,-0.407058 -1.17298,-0.818374 -1.777653,-1.20224 C 48.43545,38.143217 47.969299,37.675441 47.534694,37.170309 47.371492,36.97905 47.026231,36.580572 46.881272,36.384534 46.43887,35.786253 46.110149,35.112523 45.773496,34.452536 45.150965,33.232026 44.644664,31.957684 44.099466,30.701464 43.533197,29.32399 43.000083,27.928731 42.683493,26.46903 42.497972,25.691559 42.35252,24.901141 42.121904,24.136665 Z" />
    <path
       style="fill:#000000;stroke-width:0.264583"
       id="path3"
       d="m 42.002064,60.533811 c 0.247319,-0.582007 0.451993,-1.180909 0.690801,-1.766411 0.259024,-0.705144 0.648379,-1.342237 1.068726,-1.960065 0.414014,-0.592037 0.879972,-1.144805 1.392565,-1.653302 0.470644,-0.435155 0.964801,-0.843373 1.436185,-1.278059 0.453784,-0.437301 0.962933,-0.80934 1.506694,-1.125662 0.466852,-0.273881 0.949467,-0.518665 1.428509,-0.770059 0.481803,-0.263689 0.940429,-0.566497 1.413377,-0.845349 0.581613,-0.321511 1.179272,-0.613376 1.777953,-0.901523 0.681717,-0.357666 1.38747,-0.660638 2.108261,-0.929235 0.603281,-0.252524 1.22133,-0.453155 1.852774,-0.618993 0.445862,-0.159022 0.900043,-0.239453 1.369396,-0.281649 0.452686,-0.0093 0.895495,-0.117017 1.34517,-0.168463 0.364046,-0.01566 0.719812,-0.09522 1.077344,-0.158713 0.308438,-0.05288 0.584636,-0.202059 0.866291,-0.329755 0.388424,-0.189765 0.777301,-0.378394 1.171953,-0.555014 0.522145,-0.202978 1.033039,-0.405469 1.503757,-0.713155 0.467405,-0.29649 1.003395,-0.444834 1.505699,-0.667168 0.309049,-0.244131 0.64894,-0.270595 1.023889,-0.245859 0.333912,0.02875 0.667407,0.0586 1.002054,0.07658 0.349049,0.02479 0.697878,-0.01143 1.041601,-0.07019 0.309819,-0.05952 0.607121,-0.15952 0.898972,-0.277136 0.247074,-0.09718 0.498737,-0.175781 0.756113,-0.240329 0.20823,-0.0644 0.415409,-0.09333 0.632214,-0.08549 0.05394,0.0059 0.388139,0.02342 0.37574,-0.06001 -0.0082,-0.05512 -0.04999,-0.09961 -0.07499,-0.149418 0.04313,7.93e-4 0.08626,0.0013 0.129387,0.0021 0,0 -0.06394,-0.04808 -0.06394,-0.04808 v 0 c -0.06555,-0.01736 -0.131104,-0.03472 -0.196657,-0.05208 -0.298718,-0.149114 -0.648095,-0.36558 -1.001263,-0.287274 -0.191201,0.0409 -0.378651,0.09908 -0.566161,0.153971 -0.252507,0.07138 -0.511312,0.131136 -0.739976,0.265568 -0.28348,0.118737 -0.579657,0.205822 -0.881216,0.265266 -0.328723,0.05591 -0.664046,0.08672 -0.99763,0.0756 -0.352229,-0.03336 -0.705006,-0.06412 -1.055018,-0.116705 -0.406363,-0.04031 -0.758081,0.105513 -1.143608,0.218776 -0.512755,0.199898 -0.998001,0.454988 -1.500775,0.677609 -0.553003,0.195969 -1.09606,0.418774 -1.650714,0.610489 -0.40626,0.173611 -0.807371,0.358788 -1.213483,0.532405 -0.272584,0.137221 -0.551323,0.244647 -0.85113,0.306573 -0.336436,0.09632 -0.67973,0.138885 -1.026184,0.182155 -0.417877,0.07219 -0.836369,0.146785 -1.25187,0.228637 -0.480158,0.05283 -0.960374,0.135191 -1.424176,0.2712 -0.588904,0.218154 -1.163508,0.474827 -1.750973,0.697569 -0.695288,0.297145 -1.378436,0.617921 -2.040374,0.98444 -0.579874,0.307182 -1.1792,0.581279 -1.728536,0.942959 -0.457282,0.298003 -0.913418,0.600176 -1.400662,0.847945 -0.461359,0.261247 -0.898935,0.562089 -1.364935,0.815898 -0.530537,0.33727 -1.021133,0.714714 -1.449575,1.178629 -0.473811,0.431869 -0.97192,0.836668 -1.42866,1.287031 -0.499438,0.525502 -0.981877,1.067671 -1.386991,1.671172 -0.412326,0.628094 -0.763698,1.293101 -1.036632,1.994112 -0.225348,0.586078 -0.449538,1.174554 -0.742119,1.731245 z" />
    <text
       xml:space="preserve"
       style="font-size:3.175px;fill:#000000;stroke-width:0.264583"
       x="74.868019"
       y="68.141579"
       id="text5"><tspan
         sodipodi:role="line"
         id="tspan5"
         style="stroke-width:0.264583"
         x="74.868019"
         y="68.141579">$t$</tspan></text>
    <text
       xml:space="preserve"
       style="font-size:3.175px;fill:#000000;stroke-width:0.264583"
       x="11.653982"
       y="22.408529"
       id="text6"><tspan
         sodipodi:role="line"
         id="tspan6"
         style="stroke-width:0.264583"
         x="11.653982"
         y="22.408529">$v_reação$</tspan></text>
    <text
       xml:space="preserve"
       style="font-size:3.175px;fill:#000000;stroke-width:0.264583"
       x="60.74197"
       y="34.945389"
       id="text7"><tspan
         sodipodi:role="line"
         id="tspan7"
         style="stroke-width:0.264583"
         x="60.74197"
         y="34.945389">$A$</tspan></text>
    <text
       xml:space="preserve"
       style="font-size:3.175px;fill:#000000;stroke-width:0.264583"
       x="60.741974"
       y="57.723633"
       id="text8"><tspan
         sodipodi:role="line"
         id="tspan8"
         style="stroke-width:0.264583"
         x="60.741974"
         y="57.723633">$B$</tspan></text>
    <path
       style="fill:#000000;stroke-width:0.264583"
       id="path9"
       d="m 45.636306,54.449471 c -0.298045,0.546598 -0.06922,1.095703 0.159954,1.62024 0.133586,0.250259 0.205936,0.411461 0.379823,0.63655 0.161925,0.209598 0.344633,0.390708 0.574738,0.526963 1.398834,0.828315 1.000694,0.670727 1.937108,0.960252 1.004366,0.245068 2.045522,0.227433 3.071367,0.189556 0.779929,-0.03037 1.556383,-0.112456 2.334806,-0.164852 0.468373,-0.06077 0.946295,-0.02281 1.410522,-0.114519 0.268907,-0.05657 0.544539,-0.1104 0.819309,-0.124521 0.192561,-0.02119 0.381154,0.01376 0.572349,0.02913 0.08257,-0.0021 0.0622,0.0049 0.0063,-0.03119 -0.179372,-0.115805 -0.354378,-0.238236 -0.531566,-0.357351 0,0 0.07112,0.03663 0.07112,0.03663 v 0 c -0.11095,-0.09343 -0.422444,-0.5002 -0.700178,-0.482254 -0.14048,0.02334 -0.269729,0.0827 -0.41071,0.108345 -0.247766,0.07794 -0.507727,0.14374 -0.768236,0.153162 -0.469836,0.01969 -0.936421,0.08866 -1.406072,0.113789 -0.755521,0.07898 -1.512081,0.151352 -2.269824,0.204912 -1.059084,0.04045 -2.123628,0.03219 -3.14434,-0.295979 -0.159517,-0.05878 -0.577958,-0.314243 -0.478552,-0.176334 0.14904,0.206772 0.426824,0.27904 0.646166,0.408874 0.127338,0.07537 -0.253027,-0.154676 -0.369949,-0.245372 -0.214492,-0.166389 -0.44247,-0.404405 -0.607655,-0.619287 -0.08422,-0.109553 -0.154194,-0.229356 -0.231291,-0.344035 -0.266784,-0.536567 -0.43198,-1.105619 -0.456835,-1.707964 z" />
    <path
       style="fill:#000000;stroke-width:0.264583"
       id="path10"
       d="m 55.210992,55.993265 c -0.277772,0.705255 -0.07356,1.468125 0.02929,2.189101 -7.94e-4,0.09778 -7.94e-4,0.195578 -0.0021,0.293355 -0.0016,0.116376 0.0039,0.501615 0.0052,0.50248 1.477452,0.936109 1.237155,1.330143 1.531213,0.647158 0.07131,-0.519634 0.06456,-1.049954 0.04531,-1.573557 0.01225,-0.213722 -0.03876,-0.422605 -0.04641,-0.634918 -0.02294,-0.151511 0.232736,-0.150346 0.333761,-0.165811 0.170273,0.0095 0.254604,0.0013 0.419405,0.06655 0.06877,0.02726 0.259339,0.142441 0.194,0.107762 -0.385744,-0.204734 -0.747996,-0.460248 -1.15524,-0.617945 -0.0893,-0.03458 0.12414,0.148424 0.165616,0.234733 0.04546,0.09461 0.06127,0.200777 0.09191,0.301165 -0.04842,1.168643 0.04027,-0.56792 -0.08713,0.721635 -0.01513,0.153088 0.01286,0.309295 -0.01021,0.461388 -0.02167,0.142873 -0.08192,0.277162 -0.122886,0.41574 0,0 0.0676,0.04279 0.0676,0.04279 v 0 c 0.748548,-0.157211 1.32842,-0.116957 1.47185,-0.997839 -0.0055,-0.106921 0.0062,-0.216154 -0.01662,-0.32076 -0.154871,-0.710181 -1.249772,-0.996717 -1.667949,-1.245971 -0.220607,-0.131492 -0.456993,-0.148814 -0.703022,-0.106531 -0.169515,0.04994 -0.5096,0.146587 -0.440602,0.390191 0.06138,0.208825 0.05079,0.428604 0.09643,0.641234 0.04654,0.493763 0.08427,0.997929 -0.05314,1.481804 -0.0013,0.0013 -0.0027,0.0027 -0.0041,0.004 0.456616,0.275987 0.913234,0.551974 1.369849,0.827958 -0.0263,-0.03097 -0.06139,-0.05625 -0.07891,-0.09291 -0.116922,-0.244665 -0.121328,-0.542761 -0.213138,-0.794755 -0.07375,-0.76807 -0.05012,-1.553462 -0.283625,-2.297462 z" />
    <path
       style="fill:#000000;stroke-width:0.264583"
       id="path11"
       d="m 51.281499,40.296901 c -0.410581,-0.268713 -1.289839,-0.384739 0.612716,0.353208 0.110395,0.04282 -0.174931,-0.160843 -0.24966,-0.25269 -0.235241,-0.289126 -0.340405,-0.520184 -0.522206,-0.85104 -0.437126,-0.927852 -0.844142,-1.897669 -0.981104,-2.922633 -0.02458,-0.183904 -0.02988,-0.369874 -0.04481,-0.55481 0.0159,-0.578509 0.04963,-1.204822 0.340251,-1.724303 0.119298,-0.213246 0.256953,-0.333438 0.423985,-0.506163 0.491283,-0.456999 1.107172,-0.708441 1.729507,-0.928571 0.604774,-0.19208 1.209818,-0.388702 1.790771,-0.645253 0.411573,-0.210902 0.846389,-0.31977 1.301147,-0.384217 0.410014,-0.04858 0.80187,0.07338 1.198412,0.152934 0.09419,-0.0096 0.652716,0.144796 0.668731,-0.005 0.003,-0.02767 -0.01527,-0.05352 -0.02289,-0.08028 0.02508,-0.0011 0.05073,-0.0084 0.07528,-0.0031 0.0991,0.02141 0.204613,0.0869 0.293558,0.127257 0.0016,7.94e-4 0.149616,0.03363 0.08729,0.04604 -2.12041,-1.265484 -0.780483,-0.433454 -0.32358,-0.166677 0.04983,0.04156 0.09967,0.08311 0.149503,0.124666 0,0 0.07317,0.03234 0.07317,0.03234 v 0 c 0.01595,-0.01371 0.03192,-0.02739 0.04788,-0.04109 0.08718,0.01132 0.202375,0.06925 0.263671,0.0062 0.03665,-0.03769 -0.108577,-0.113131 -0.120666,-0.115636 -0.373433,-0.223097 -0.746866,-0.446196 -1.120299,-0.669293 -0.247486,-0.07025 0.07149,0.169214 -0.196522,0.08893 -0.140718,-0.06201 -0.274952,-0.129754 -0.425855,-0.164785 -0.193246,-0.04486 -0.395848,0.02019 -0.587626,-0.04185 -0.39052,-0.07909 -0.782497,-0.140832 -1.182187,-0.08385 -0.48069,0.05855 -0.940917,0.196405 -1.396588,0.358365 -0.609081,0.196567 -1.201081,0.443137 -1.815618,0.624173 -0.643147,0.224676 -1.261388,0.511831 -1.73436,1.018868 -0.0685,0.09301 -0.147653,0.179036 -0.205494,0.279022 -0.376073,0.650089 -0.374044,1.456676 -0.358491,2.180164 0.132606,1.212863 0.465002,2.378469 0.960368,3.495108 0.112287,0.249743 0.360058,0.927976 0.602406,1.097278 0.449951,0.314333 0.934061,0.576802 1.406239,0.856636 0.148799,0.08818 0.200592,0.09723 0.348959,0.144192 z" />
    <path
       style="fill:#000000;stroke-width:0.264583"
       id="path12"
       d="m 57.427632,30.845302 c -0.324538,0.632089 -0.320254,1.375124 -0.47929,2.058075 -0.02032,0.06775 -0.02714,0.141144 -0.06097,0.203268 -0.01397,0.02566 -0.04981,0.03058 -0.07472,0.04586 0.433769,0.133355 0.847519,0.395894 1.301303,0.400066 0.0048,4.5e-5 0.29559,-0.935807 0.443659,-1.347504 0.179546,-0.305663 0.248494,-1.045843 0.607554,-1.217094 0.233966,0.132254 0.478984,0.237564 0.710145,0.385686 -0.432716,-0.230995 -0.834729,-0.532223 -1.298149,-0.692987 -0.127514,-0.04423 0.179117,0.205611 0.240186,0.325975 0.06739,0.132832 0.117004,0.277114 0.14043,0.424209 0.09191,0.577117 -0.189637,1.034722 -0.431435,1.532522 -0.243834,0.774888 -0.0026,0.489387 -0.71847,0.860841 0,0 0.06687,0.04391 0.06687,0.04391 v 0 c 0.820028,-0.414538 0.341357,-0.246835 1.468279,-0.399264 0.225501,-0.107664 0.474776,-0.175522 0.676505,-0.322995 0.448638,-0.327972 0.643609,-0.8836 0.466296,-1.4058 -0.04529,-0.133398 -0.09323,-0.284679 -0.206115,-0.368956 -0.577821,-0.431406 -1.220701,-0.768009 -1.831052,-1.152015 -0.194265,-0.09735 -0.628793,-0.388352 -0.789488,-0.113927 -0.0883,0.478653 -0.239683,0.942801 -0.346657,1.418691 -0.1392,0.560353 -0.100682,0.440203 -0.270052,0.98534 -0.03908,0.125772 -0.209296,0.277712 -0.121563,0.375938 0.307502,0.344282 0.781013,0.494419 1.148477,0.773806 0.03353,0.02551 -0.105256,0.03981 -0.126333,0.0033 -0.03803,-0.0658 -0.0024,-0.151979 -0.0035,-0.22797 0.02215,-0.120542 0.03546,-0.243039 0.06641,-0.361622 0.150329,-0.575969 0.472038,-1.1497 0.326591,-1.761792 z" />
  </g>
</svg>
